<?xml version="1.0" encoding="utf-8"?>
<!-- Generator: Adobe Illustrator 22.1.0, SVG Export Plug-In . SVG Version: 6.00 Build 0)  -->
<svg version="1.1" id="Calque_1" xmlns="http://www.w3.org/2000/svg" xmlns:xlink="http://www.w3.org/1999/xlink" x="0px" y="0px"
	 viewBox="0 0 30 30" style="enable-background:new 0 0 30 30;" xml:space="preserve">
<style type="text/css">
	.st0{fill:#FFFFFF;}
</style>
<g>
	<g>
		<g>
			<g>
				<g>
					<path class="st0" d="M22.1,11.1h-1.6V8c0-2.5-2.4-5.2-5.5-5.3c-3.1,0-5.5,2.8-5.5,5.3v3.1H7.9c-0.8,0-1.3,0.6-1.3,1.3v10
						c0,0.8,0.6,1.3,1.3,1.3H22c0.8,0,1.3-0.6,1.3-1.3v-10C23.4,11.8,22.8,11.1,22.1,11.1z M11.5,8.1c0-1.3,1.3-3.2,3.5-3.2
						s3.5,1.9,3.5,3.2v3.1h-6.9L11.5,8.1z"/>
				</g>
			</g>
		</g>
	</g>
</g>
</svg>
