<?xml version="1.0" encoding="utf-8"?>
<!-- Generator: Adobe Illustrator 22.1.0, SVG Export Plug-In . SVG Version: 6.00 Build 0)  -->
<svg version="1.1" id="Calque_1" xmlns="http://www.w3.org/2000/svg" xmlns:xlink="http://www.w3.org/1999/xlink" x="0px" y="0px"
	 viewBox="0 0 30 30" style="enable-background:new 0 0 30 30;" xml:space="preserve">
<style type="text/css">
	.st0{fill:#FFFFFF;}
</style>
<path class="st0" d="M11.8,19.3l2.2,2.2c0.2,0.2,0.6,0.4,0.9,0.4s0.7-0.1,0.9-0.4l2.2-2.2l6.2-6.2c0.3-0.3,0.4-0.6,0.4-0.9
	s-0.1-0.7-0.4-0.9c-0.5-0.5-1.4-0.5-1.9,0l-0.9,0.9l-5.3,5.3V3.3c0-0.7-0.6-1.3-1.3-1.3s-1.3,0.6-1.3,1.3v14.1l-6.1-6.1
	c-0.5-0.5-1.4-0.5-1.9,0c-0.3,0.3-0.4,0.6-0.4,0.9s0.1,0.7,0.4,0.9L11.8,19.3z"/>
<path class="st0" d="M24.2,25.4H5.8c-0.7,0-1.3,0.6-1.3,1.3S5.1,28,5.8,28h18.4c0.7,0,1.3-0.6,1.3-1.3S24.9,25.4,24.2,25.4z"/>
</svg>
