<?xml version="1.0" encoding="utf-8"?>
<!-- Generator: Adobe Illustrator 22.0.1, SVG Export Plug-In . SVG Version: 6.00 Build 0)  -->
<svg version="1.1" id="Calque_1" xmlns="http://www.w3.org/2000/svg" xmlns:xlink="http://www.w3.org/1999/xlink" x="0px" y="0px"
	 viewBox="0 0 200 100" style="enable-background:new 0 0 200 100;" xml:space="preserve">
<style type="text/css">
	.st0{fill:#AA814F;}
</style>
<g>
	<path class="st0" d="M179.3,46.8c-0.6,0.4-1.1,1.1-1.5,1.8c0.5-1.5,0.9-3.1,1.1-4.7c0.2-0.1,3.9-2,5.5-3.9c2.2-2.6,2.2-6.3,2.2-6.3
		s-3.8,1.4-5.5,4.1c-1.2,1.8-1.7,3.4-1.9,4.5c0.9-8.2-1.4-16.5-5.4-22.3c-0.4-0.7-0.9-1.4-1.5-2.2c0.1,0,0.1,0,0.1,0
		s-0.1-0.1-0.3-0.3c-2.2-3-5.4-6.5-9.7-9.7c-0.5-0.9-1.6-2.8-3.5-3.9c-1.8-1-5.4-1.5-5.4-1.5s0.9,2.2,3.6,4.3
		c2.2,1.7,5.5,1.7,5.5,1.7s-0.1-0.2-0.2-0.4c2.3,1.7,5.5,4.6,8.7,8.8c-0.9-0.6-2-1.3-3-1.6c-2.6-0.8-5.6,0.2-5.6,0.2
		s1.9,2.1,4.5,2.6c2.3,0.4,4.1,0.1,4.9-0.1c0.5,0.7,1,1.4,1.5,2.2c0.8,1.2,1.5,2.5,2.1,3.9c-0.7-0.9-1.7-1.9-2.6-2.5
		c-2.5-1.6-6.2-1.4-6.2-1.4s1.3,2.7,3.9,3.9c2.5,1.2,4.6,1.4,5.5,1.4c0.8,2,1.5,4.2,1.9,6.4c-0.4-0.9-1-1.9-1.7-2.6
		c-2.2-2.3-6-3.2-6-3.2s0.6,3.2,2.9,5.1c2.1,1.7,4.1,2.6,5.1,2.9c0.3,2.2,0.3,4.4,0.2,6.6c-0.1-0.8-0.4-1.7-0.7-2.4
		c-1.4-2.7-4.9-4.7-4.9-4.7s-0.5,2.9,1.2,5.4c1.6,2.2,3.3,3.6,4.2,4.2c-0.4,2.9-1.3,5.8-2.7,8.6c0.1-1,0.3-3.5-0.1-5.1
		c-0.7-2.8-3.3-4.8-3.3-4.8s-0.9,3.2,0.2,5.7c1.1,2.7,2.6,4.1,3,4.5c-0.8,1.6-1.8,3.2-3,4.6c-5.2,7-12.9,10.4-18.5,12l0.4,1
		c2.8-0.8,6.2-2.1,9.5-4.1c0.6,0.6,1.9,1.7,4,1.6c3.7-0.3,6.8-1.9,6.8-1.9s-2-2-4-2.2c-1.2-0.1-2.7,0.3-4,0.7
		c1.6-1.2,3.2-2.6,4.7-4.1c-0.1,0.2-0.2,0.3-0.2,0.3s3.2,0.6,6.9-0.4c3-0.8,4.2-3.6,4.2-3.6s-4.4-0.8-7.2,0.4
		c-0.8,0.4-1.7,1.1-2.3,1.8c0.2-0.3,0.5-0.6,0.7-0.9c1.4-1.7,2.5-3.6,3.4-5.5c0.9,0,3.3-0.2,6-1.7c2.7-1.5,3.5-4.9,3.5-4.9
		S181.8,44.9,179.3,46.8z"/>
	<path class="st0" d="M168.4,12.4c0,0,1-1.7,0.2-4.6C168,5.4,165,3.1,165,3.1s-1.4,2.3-0.3,4.8C165.5,9.7,168.4,12.4,168.4,12.4z"/>
	<path class="st0" d="M161.3,13.1c3.8,0.8,6.2-0.2,6.2-0.2s-3.2-2.8-5.4-3.5c-3.1-1-6.4,0.3-6.4,0.3S158.2,12.5,161.3,13.1z"/>
	<path class="st0" d="M173.7,18.8c0,0,1.5-3.7,1.5-6c-0.1-3.3-2.3-6.1-2.3-6.1s-1.8,3.2-1.3,6.3C172,16.7,173.7,18.8,173.7,18.8z"/>
	<path class="st0" d="M180.4,20.1c0.6-3.2-1.4-5.5-1.4-5.5s-2.7,3.8-2.9,7c-0.1,2.3,1.6,5.2,1.6,5.2S179.7,24.1,180.4,20.1z"/>
	<path class="st0" d="M172.4,54.8c0.1-2.4-2.3-5.6-2.3-5.6s-2.2,1.6-1.9,4.1c0.4,3.1,2.1,5.3,2.1,5.3S172.3,56.6,172.4,54.8z"/>
	<path class="st0" d="M179.3,34.6c0,0,2.6-2,4.4-5.6c1.4-2.9,0.4-5.9,0.4-5.9s-3.5,2.8-4.6,5.9C178.7,31.1,179.3,34.6,179.3,34.6z"
		/>
	<path class="st0" d="M166.3,61.1c1-2.5,0.3-6.2,0.3-6.2s-2.3,1.2-3,3.8c-0.8,3.2-0.3,5.9-0.3,5.9S165.6,62.9,166.3,61.1z"/>
	<path class="st0" d="M46.2,68.7c-5.6-1.6-13.3-5-18.5-12c-1.2-1.5-2.2-3-3-4.6c0.4-0.4,1.9-1.8,3-4.5c1-2.6,0.2-5.7,0.2-5.7
		s-2.5,2-3.3,4.8c-0.4,1.6-0.2,4.1-0.1,5.1c-1.4-2.7-2.2-5.6-2.7-8.6c0.9-0.6,2.6-1.9,4.2-4.2c1.7-2.5,1.2-5.4,1.2-5.4
		s-3.5,2-4.9,4.7c-0.4,0.7-0.6,1.6-0.7,2.4c-0.2-2.2-0.1-4.4,0.2-6.6c1-0.3,3-1.2,5.1-2.9c2.4-2,2.9-5.1,2.9-5.1s-3.8,0.9-6,3.2
		c-0.6,0.7-1.2,1.7-1.7,2.6c0.4-2.3,1.1-4.4,1.9-6.4c0.9,0,3-0.3,5.5-1.4c2.6-1.2,3.9-3.9,3.9-3.9s-3.7-0.1-6.2,1.4
		c-1,0.6-1.9,1.7-2.6,2.5c0.6-1.4,1.4-2.7,2.1-3.9c0.5-0.8,1-1.5,1.5-2.2c0.8,0.2,2.6,0.5,4.9,0.1c2.6-0.4,4.5-2.6,4.5-2.6
		s-3-1-5.6-0.2c-1,0.3-2.2,1-3,1.6c3.2-4.2,6.4-7.1,8.7-8.8c-0.1,0.3-0.2,0.4-0.2,0.4s3.3,0,5.5-1.7c2.8-2.1,3.6-4.3,3.6-4.3
		S43,2.9,41.2,4c-1.8,1.1-3,3-3.5,3.9c-4.3,3.1-7.5,6.6-9.7,9.7c-0.2,0.2-0.3,0.3-0.3,0.3s0,0,0.1,0c-0.6,0.8-1.1,1.5-1.5,2.2
		c-4,5.8-6.3,14.1-5.4,22.3c-0.2-1.1-0.8-2.7-1.9-4.5c-1.7-2.7-5.5-4.1-5.5-4.1s0,3.7,2.2,6.3c1.5,1.8,5.3,3.8,5.5,3.9
		c0.2,1.6,0.6,3.2,1.1,4.7c-0.5-0.7-1-1.3-1.5-1.8c-2.5-1.9-6.7-1.7-6.7-1.7s0.8,3.5,3.5,4.9c2.6,1.4,5,1.6,6,1.7
		c0.9,1.9,2,3.8,3.4,5.5c0.2,0.3,0.5,0.6,0.7,0.9c-0.7-0.7-1.5-1.4-2.3-1.8c-2.8-1.2-7.2-0.4-7.2-0.4s1.2,2.7,4.2,3.6
		c3.7,1,6.9,0.4,6.9,0.4s-0.1-0.1-0.2-0.3c1.5,1.6,3,3,4.7,4.1c-1.3-0.4-2.8-0.8-4-0.7c-2,0.2-4,2.2-4,2.2s3.1,1.6,6.8,1.9
		c2.1,0.1,3.4-0.9,4-1.6c3.3,2,6.7,3.3,9.5,4.1L46.2,68.7z"/>
	<path class="st0" d="M35.3,7.9C36.4,5.4,35,3.1,35,3.1s-3,2.3-3.6,4.7c-0.8,2.9,0.2,4.6,0.2,4.6S34.5,9.7,35.3,7.9z"/>
	<path class="st0" d="M37.9,9.4c-2.2,0.7-5.4,3.5-5.4,3.5s2.4,1,6.2,0.2c3-0.6,5.6-3.5,5.6-3.5S41.1,8.3,37.9,9.4z"/>
	<path class="st0" d="M28.5,12.9c0.4-3.1-1.3-6.3-1.3-6.3s-2.3,2.9-2.3,6.1c0,2.3,1.5,6,1.5,6S28,16.7,28.5,12.9z"/>
	<path class="st0" d="M22.3,26.9c0,0,1.7-3,1.6-5.2c-0.1-3.2-2.9-7-2.9-7s-2,2.3-1.4,5.5C20.3,24.1,22.3,26.9,22.3,26.9z"/>
	<path class="st0" d="M29.9,49.3c0,0-2.4,3.1-2.3,5.6c0.1,1.7,2,3.8,2,3.8s1.7-2.3,2.1-5.3C32,50.9,29.9,49.3,29.9,49.3z"/>
	<path class="st0" d="M20.7,34.6c0,0,0.6-3.5-0.1-5.7c-1.1-3.1-4.6-5.9-4.6-5.9s-1.1,3,0.4,5.9C18.1,32.6,20.7,34.6,20.7,34.6z"/>
	<path class="st0" d="M33.4,55c0,0-0.7,3.7,0.3,6.2c0.7,1.8,3,3.5,3,3.5s0.5-2.7-0.3-5.9C35.8,56.2,33.4,55,33.4,55z"/>
	<path class="st0" d="M72,57.8c0.2-0.4,0.3-0.8,0.3-1.3c0-0.3,0-0.6-0.1-0.9c-0.1-0.3-0.2-0.5-0.4-0.8c-0.2-0.2-0.4-0.4-0.7-0.5
		c-0.3-0.1-0.6-0.2-0.9-0.2h-4.6v9.2h4.4c0.4,0,0.7-0.1,1-0.2c0.3-0.1,0.6-0.3,0.9-0.5s0.4-0.5,0.6-0.8c0.1-0.3,0.2-0.6,0.2-1
		c0-0.6-0.2-1.1-0.5-1.5c-0.3-0.4-0.7-0.7-1.3-0.9C71.5,58.5,71.8,58.2,72,57.8z M71.2,59.7c0.1,0.1,0.2,0.3,0.3,0.5
		c0.1,0.2,0.1,0.4,0.1,0.6s0,0.4-0.1,0.6s-0.2,0.4-0.3,0.5c-0.1,0.1-0.3,0.3-0.5,0.3c-0.2,0.1-0.4,0.1-0.6,0.1h-3.2v-3.2h3.3
		c0.2,0,0.4,0,0.6,0.1C70.9,59.4,71.1,59.5,71.2,59.7z M71.1,57.3c-0.1,0.2-0.2,0.3-0.3,0.5s-0.3,0.2-0.4,0.3
		c-0.2,0.1-0.4,0.1-0.6,0.1h-2.9v-3.1h3c0.2,0,0.4,0,0.5,0.1c0.2,0.1,0.3,0.2,0.4,0.3s0.2,0.3,0.3,0.5s0.1,0.4,0.1,0.6
		C71.2,56.9,71.2,57.1,71.1,57.3z"/>
	<polygon class="st0" points="75.9,59.2 80.2,59.2 80.2,58.2 75.9,58.2 75.9,55.2 80.9,55.2 80.9,54.1 74.7,54.1 74.7,63.4 81,63.4 
		81,62.3 75.9,62.3 	"/>
	<path class="st0" d="M88.5,59.1c-0.3-0.2-0.6-0.4-1-0.5s-0.8-0.3-1.3-0.4c-0.4-0.1-0.8-0.2-1.1-0.3c-0.3-0.1-0.6-0.2-0.8-0.3
		c-0.2-0.1-0.4-0.3-0.4-0.4c-0.1-0.2-0.1-0.4-0.1-0.6c0-0.5,0.2-0.8,0.5-1.1s0.9-0.4,1.6-0.4c0.3,0,0.5,0,0.8,0.1
		c0.3,0.1,0.5,0.1,0.7,0.2c0.2,0.1,0.4,0.2,0.6,0.3c0.2,0.1,0.3,0.2,0.4,0.4l0.5-0.9c-0.4-0.3-0.8-0.6-1.3-0.8
		c-0.5-0.2-1.1-0.3-1.7-0.3c-0.5,0-0.9,0.1-1.3,0.2c-0.4,0.1-0.8,0.3-1.1,0.5c-0.3,0.2-0.5,0.5-0.7,0.9c-0.2,0.3-0.2,0.7-0.2,1.2
		c0,0.4,0.1,0.7,0.2,0.9c0.1,0.3,0.3,0.5,0.5,0.7c0.2,0.2,0.5,0.3,0.9,0.5s0.8,0.3,1.2,0.4c0.4,0.1,0.8,0.2,1.1,0.3
		c0.3,0.1,0.6,0.2,0.8,0.3s0.4,0.3,0.5,0.5s0.2,0.4,0.2,0.7c0,0.5-0.2,0.8-0.5,1.1c-0.4,0.2-0.9,0.4-1.5,0.4c-0.4,0-0.7,0-1-0.1
		c-0.3-0.1-0.6-0.2-0.9-0.3c-0.3-0.1-0.5-0.2-0.8-0.4s-0.4-0.3-0.5-0.4l-0.6,1c0.5,0.4,1.1,0.7,1.7,1c0.6,0.2,1.3,0.3,2,0.3
		c0.5,0,0.9,0,1.3-0.1s0.8-0.3,1.1-0.5c0.3-0.2,0.5-0.5,0.7-0.8c0.2-0.3,0.3-0.7,0.3-1.2c0-0.4-0.1-0.8-0.2-1.1S88.8,59.3,88.5,59.1
		z"/>
	<polygon class="st0" points="97.8,54.1 90.3,54.1 90.3,55.2 93.5,55.2 93.5,63.4 94.6,63.4 94.6,55.2 97.8,55.2 	"/>
	<path class="st0" d="M105.1,54.1l-3.8,9.2h1.2l1.1-2.7h3.9l1.1,2.7h1.2l-3.8-9.2H105.1z M103.9,59.8l1.7-4.3l1.7,4.3H103.9z"/>
	<path class="st0" d="M116.4,54.4c-0.3-0.2-0.7-0.3-1.1-0.3h-3.8v9.2h1.2v-3.3h2.8c0.4,0,0.8-0.1,1.1-0.2c0.3-0.2,0.6-0.4,0.9-0.7
		c0.2-0.3,0.4-0.6,0.6-0.9s0.2-0.7,0.2-1.1c0-0.4-0.1-0.7-0.2-1.1c-0.1-0.4-0.3-0.7-0.6-0.9C117,54.8,116.7,54.6,116.4,54.4z
		 M116.8,57.8c-0.1,0.2-0.2,0.4-0.3,0.6s-0.3,0.3-0.5,0.4c-0.2,0.1-0.4,0.1-0.7,0.1h-2.7v-3.8h2.6c0.2,0,0.4,0,0.6,0.1
		c0.2,0.1,0.4,0.2,0.5,0.4c0.2,0.2,0.3,0.4,0.4,0.6s0.1,0.5,0.1,0.8C116.9,57.4,116.8,57.6,116.8,57.8z"/>
	<path class="st0" d="M126.3,56c-0.1-0.4-0.3-0.7-0.6-0.9c-0.2-0.3-0.5-0.5-0.9-0.7c-0.3-0.2-0.7-0.3-1.1-0.3h-3.8v9.2h1.2v-3.3h2.8
		c0.4,0,0.8-0.1,1.1-0.2c0.3-0.2,0.6-0.4,0.9-0.7c0.2-0.3,0.4-0.6,0.6-0.9s0.2-0.7,0.2-1.1C126.5,56.7,126.4,56.4,126.3,56z
		 M125.2,57.8c-0.1,0.2-0.2,0.4-0.3,0.6s-0.3,0.3-0.5,0.4c-0.2,0.1-0.4,0.1-0.7,0.1H121v-3.8h2.6c0.2,0,0.4,0,0.6,0.1
		c0.2,0.1,0.4,0.2,0.5,0.4c0.2,0.2,0.3,0.4,0.4,0.6s0.1,0.5,0.1,0.8C125.3,57.4,125.3,57.6,125.2,57.8z"/>
	<path class="st0" d="M129.9,54.3c-0.4,0.1-0.8,0.3-1.1,0.5c-0.3,0.2-0.5,0.5-0.7,0.9c-0.2,0.3-0.2,0.7-0.2,1.2
		c0,0.4,0.1,0.7,0.2,0.9c0.1,0.3,0.3,0.5,0.5,0.7c0.2,0.2,0.5,0.3,0.9,0.5s0.8,0.3,1.2,0.4c0.4,0.1,0.8,0.2,1.1,0.3
		c0.3,0.1,0.6,0.2,0.8,0.3s0.4,0.3,0.5,0.5s0.2,0.4,0.2,0.7c0,0.5-0.2,0.8-0.5,1.1c-0.4,0.2-0.9,0.4-1.5,0.4c-0.4,0-0.7,0-1-0.1
		c-0.3-0.1-0.6-0.2-0.9-0.3c-0.3-0.1-0.5-0.2-0.8-0.4s-0.4-0.3-0.5-0.4l-0.6,1c0.5,0.4,1.1,0.7,1.7,1c0.6,0.2,1.3,0.3,2,0.3
		c0.5,0,0.9,0,1.3-0.1s0.8-0.3,1.1-0.5c0.3-0.2,0.5-0.5,0.7-0.8c0.2-0.3,0.3-0.7,0.3-1.2c0-0.4-0.1-0.8-0.2-1.1s-0.4-0.5-0.6-0.7
		c-0.3-0.2-0.6-0.4-1-0.5s-0.8-0.3-1.3-0.4c-0.4-0.1-0.8-0.2-1.1-0.3c-0.3-0.1-0.6-0.2-0.8-0.3c-0.2-0.1-0.4-0.3-0.4-0.4
		c-0.1-0.2-0.1-0.4-0.1-0.6c0-0.5,0.2-0.8,0.5-1.1s0.9-0.4,1.6-0.4c0.3,0,0.5,0,0.8,0.1c0.3,0.1,0.5,0.1,0.7,0.2
		c0.2,0.1,0.4,0.2,0.6,0.3c0.2,0.1,0.3,0.2,0.4,0.4l0.5-0.9c-0.4-0.3-0.8-0.6-1.3-0.8c-0.5-0.2-1.1-0.3-1.7-0.3
		C130.7,54.1,130.3,54.1,129.9,54.3z"/>
	<polygon class="st0" points="57.4,73.9 53.3,73.9 53.3,70.8 58.2,70.8 58.2,69.7 52.1,69.7 52.1,79 53.3,79 53.3,74.8 57.4,74.8 	
		"/>
	<path class="st0" d="M66.7,77.6c0.4-0.4,0.7-0.9,0.9-1.5c0.2-0.6,0.3-1.2,0.3-1.8c0-0.6-0.1-1.2-0.3-1.7c-0.2-0.6-0.5-1.1-0.9-1.5
		c-0.4-0.4-0.8-0.8-1.4-1.1c-0.5-0.3-1.1-0.4-1.8-0.4c-0.6,0-1.2,0.1-1.7,0.4s-1,0.6-1.4,1c-0.4,0.4-0.7,0.9-0.9,1.5
		c-0.2,0.6-0.3,1.2-0.3,1.8c0,0.6,0.1,1.2,0.3,1.7s0.5,1.1,0.9,1.5c0.4,0.4,0.8,0.8,1.4,1.1S63,79,63.6,79c0.6,0,1.2-0.1,1.7-0.4
		C65.9,78.4,66.3,78.1,66.7,77.6z M63.6,78c-0.5,0-0.9-0.1-1.3-0.3c-0.4-0.2-0.7-0.5-1-0.8s-0.5-0.7-0.6-1.2
		c-0.2-0.4-0.2-0.9-0.2-1.4c0-0.5,0.1-0.9,0.2-1.3s0.4-0.8,0.6-1.2c0.3-0.3,0.6-0.6,1-0.8s0.8-0.3,1.3-0.3c0.5,0,0.9,0.1,1.3,0.3
		s0.7,0.5,1,0.8c0.3,0.3,0.5,0.7,0.7,1.2c0.2,0.4,0.2,0.9,0.2,1.4c0,0.4-0.1,0.9-0.2,1.3c-0.1,0.4-0.4,0.8-0.6,1.2
		c-0.3,0.3-0.6,0.6-1,0.8C64.6,77.9,64.1,78,63.6,78z"/>
	<path class="st0" d="M76.1,74.4c0.2-0.2,0.3-0.5,0.4-0.8c0.1-0.3,0.1-0.6,0.1-0.9c0-0.4-0.1-0.7-0.2-1.1c-0.1-0.4-0.3-0.7-0.6-0.9
		c-0.2-0.3-0.5-0.5-0.9-0.7c-0.3-0.2-0.7-0.3-1.1-0.3h-4V79h1.2v-3.3h2.4l2.1,3.3H77l-2.2-3.5c0.3-0.1,0.6-0.2,0.8-0.4
		C75.8,74.9,76,74.7,76.1,74.4z M75.4,73.4c-0.1,0.2-0.2,0.4-0.3,0.6c-0.1,0.2-0.3,0.3-0.5,0.4c-0.2,0.1-0.4,0.2-0.7,0.2h-2.8v-3.8
		h2.7c0.2,0,0.4,0,0.6,0.1c0.2,0.1,0.4,0.2,0.5,0.4c0.2,0.2,0.3,0.4,0.4,0.6c0.1,0.2,0.1,0.5,0.1,0.7C75.5,73,75.4,73.2,75.4,73.4z"
		/>
	<polygon class="st0" points="81.1,70.8 84.3,70.8 84.3,79 85.5,79 85.5,70.8 88.7,70.8 88.7,69.7 81.1,69.7 	"/>
	<polygon class="st0" points="96.5,70.8 96.5,69.7 90.3,69.7 90.3,79 96.6,79 96.6,77.9 91.5,77.9 91.5,74.8 95.8,74.8 95.8,73.8 
		91.5,73.8 91.5,70.8 	"/>
	<path class="st0" d="M106.1,79l-3.8-9.2h-1L97.5,79h1.2l1.1-2.7h3.9l1.1,2.7H106.1z M100.1,75.4l1.7-4.3l1.7,4.3H100.1z"/>
	<path class="st0" d="M114.7,76.9l-1-0.5c-0.1,0.3-0.3,0.5-0.5,0.7c-0.2,0.2-0.4,0.4-0.7,0.5c-0.2,0.1-0.5,0.2-0.7,0.3
		c-0.3,0.1-0.5,0.1-0.7,0.1c-0.5,0-0.9-0.1-1.3-0.3c-0.4-0.2-0.7-0.5-1-0.8c-0.3-0.3-0.5-0.7-0.7-1.2s-0.2-0.9-0.2-1.4
		c0-0.4,0.1-0.9,0.2-1.3c0.1-0.4,0.3-0.8,0.6-1.2s0.6-0.6,1-0.8s0.8-0.3,1.4-0.3c0.2,0,0.5,0,0.7,0.1c0.2,0.1,0.5,0.1,0.7,0.3
		s0.4,0.3,0.6,0.5c0.2,0.2,0.4,0.4,0.5,0.7l0.9-0.6c-0.3-0.6-0.7-1.1-1.3-1.5c-0.6-0.4-1.3-0.6-2.1-0.6c-0.7,0-1.3,0.1-1.9,0.4
		s-1,0.6-1.4,1.1s-0.7,0.9-0.9,1.5c-0.2,0.5-0.3,1.1-0.3,1.7c0,0.6,0.1,1.2,0.3,1.7c0.2,0.6,0.5,1.1,0.9,1.5s0.8,0.8,1.4,1.1
		s1.1,0.4,1.7,0.4c0.4,0,0.7,0,1.1-0.1c0.4-0.1,0.7-0.2,1.1-0.4c0.3-0.2,0.6-0.4,0.9-0.7C114.3,77.6,114.5,77.3,114.7,76.9z"/>
	<polygon class="st0" points="122.7,73.7 117.6,73.7 117.6,69.7 116.5,69.7 116.5,79 117.6,79 117.6,74.8 122.7,74.8 122.7,79 
		123.9,79 123.9,69.7 122.7,69.7 	"/>
	<rect x="126.4" y="69.7" class="st0" width="1.2" height="9.2"/>
	<polygon class="st0" points="131.1,69.7 130.1,69.7 130.1,79 131.3,79 131.3,71.9 137,79 137.9,79 137.9,69.8 136.8,69.8 
		136.8,76.9 	"/>
	<path class="st0" d="M147,79h1v-4.6h-3v0.9h2v1.3c-0.8,1-1.7,1.5-2.7,1.5c-0.5,0-0.9-0.1-1.3-0.3s-0.7-0.5-1-0.8
		c-0.3-0.3-0.5-0.7-0.7-1.2c-0.2-0.4-0.2-0.9-0.2-1.4c0-0.5,0.1-0.9,0.2-1.4c0.1-0.4,0.4-0.8,0.6-1.2c0.3-0.3,0.6-0.6,1-0.8
		c0.4-0.2,0.8-0.3,1.3-0.3c0.6,0,1.1,0.1,1.5,0.4c0.5,0.3,0.8,0.7,1.1,1.2l0.9-0.6c-0.3-0.6-0.7-1.1-1.3-1.5
		c-0.6-0.4-1.3-0.6-2.2-0.6c-0.6,0-1.2,0.1-1.7,0.4c-0.5,0.3-1,0.6-1.4,1c-0.4,0.4-0.7,0.9-0.9,1.5c-0.2,0.6-0.3,1.2-0.3,1.8
		c0,0.6,0.1,1.2,0.3,1.7c0.2,0.6,0.5,1.1,0.9,1.5c0.4,0.4,0.8,0.8,1.4,1.1s1.1,0.4,1.7,0.4c1.1,0,2-0.4,2.8-1.3V79z"/>
	<path class="st0" d="M49.6,91.4c0.1-0.5,0.2-1,0.2-1.6h-0.9c0,0.4,0,0.8-0.1,1.2c-0.1,0.4-0.2,0.7-0.4,1L46,89.5
		c0.3-0.2,0.5-0.3,0.7-0.5c0.2-0.2,0.4-0.4,0.6-0.6c0.2-0.2,0.3-0.4,0.4-0.6s0.1-0.5,0.1-0.7c0-0.3-0.1-0.5-0.2-0.8
		c-0.1-0.2-0.3-0.4-0.5-0.6c-0.2-0.2-0.4-0.3-0.7-0.4c-0.3-0.1-0.6-0.1-0.9-0.1c-0.3,0-0.7,0.1-0.9,0.2c-0.3,0.1-0.5,0.2-0.8,0.4
		c-0.2,0.2-0.4,0.4-0.5,0.7s-0.2,0.5-0.2,0.8c0,0.2,0,0.3,0.1,0.5c0,0.2,0.1,0.3,0.2,0.5s0.2,0.3,0.4,0.5c0.1,0.2,0.3,0.4,0.5,0.6
		c-0.2,0.2-0.5,0.3-0.7,0.5s-0.4,0.4-0.6,0.6s-0.3,0.5-0.4,0.7s-0.1,0.5-0.1,0.8c0,0.4,0.1,0.7,0.2,1c0.2,0.3,0.4,0.6,0.6,0.8
		c0.3,0.2,0.6,0.4,0.9,0.5c0.4,0.1,0.8,0.2,1.2,0.2c0.5,0,1-0.1,1.5-0.3c0.5-0.2,0.9-0.5,1.3-0.8l1,1h1.5L49,92.7
		C49.3,92.3,49.5,91.9,49.6,91.4z M44.4,87.6c0-0.1,0-0.2,0-0.3c0-0.3,0.1-0.6,0.4-0.8s0.6-0.3,1-0.3c0.3,0,0.6,0.1,0.9,0.3
		c0.2,0.2,0.3,0.4,0.3,0.7c0,0.3-0.1,0.6-0.4,0.9c-0.3,0.3-0.6,0.5-1.1,0.8c-0.2-0.2-0.4-0.4-0.5-0.6c-0.1-0.2-0.2-0.3-0.3-0.4
		C44.5,87.8,44.4,87.7,44.4,87.6z M46.8,93.6c-0.3,0.2-0.7,0.2-1.1,0.2c-0.3,0-0.5,0-0.7-0.1s-0.5-0.2-0.6-0.3s-0.3-0.3-0.4-0.5
		c-0.1-0.2-0.2-0.4-0.2-0.7c0-0.4,0.1-0.8,0.4-1.1s0.6-0.6,1-0.9l2.6,2.8C47.5,93.2,47.2,93.4,46.8,93.6z"/>
	<polygon class="st0" points="57.1,85.3 55.9,85.3 55.9,94.6 62.2,94.6 62.2,93.5 57.1,93.5 	"/>
	<polygon class="st0" points="65,90.4 69.3,90.4 69.3,89.4 65,89.4 65,86.4 70,86.4 70,85.3 63.8,85.3 63.8,94.6 70.1,94.6 
		70.1,93.5 65,93.5 	"/>
	<path class="st0" d="M74.8,85.3l-3.8,9.2h1.2l1.1-2.7h3.9l1.1,2.7h1.2l-3.8-9.2H74.8z M73.6,91l1.7-4.3L77,91H73.6z"/>
	<path class="st0" d="M86.8,90.7c0.2-0.2,0.4-0.4,0.6-0.6s0.3-0.5,0.4-0.8c0.1-0.3,0.1-0.6,0.1-0.9c0-0.4-0.1-0.7-0.2-1.1
		c-0.1-0.4-0.3-0.7-0.6-0.9c-0.2-0.3-0.5-0.5-0.9-0.7c-0.3-0.2-0.7-0.3-1.1-0.3h-4v9.2h1.2v-3.3h2.4l2.1,3.3h1.3L86,91
		C86.3,91,86.5,90.8,86.8,90.7z M85.1,90.2h-2.8v-3.8h2.7c0.2,0,0.4,0,0.6,0.1c0.2,0.1,0.4,0.2,0.5,0.4c0.2,0.2,0.3,0.4,0.4,0.6
		s0.1,0.5,0.1,0.7c0,0.3,0,0.5-0.1,0.7c-0.1,0.2-0.2,0.4-0.3,0.6S86,90,85.8,90.1C85.6,90.2,85.4,90.2,85.1,90.2z"/>
	<polygon class="st0" points="96.7,92.5 90.9,85.3 90,85.3 90,94.6 91.2,94.6 91.2,87.5 96.8,94.6 97.8,94.6 97.8,85.4 96.7,85.4 	
		"/>
	<rect x="100.4" y="85.3" class="st0" width="1.2" height="9.2"/>
	<polygon class="st0" points="110.7,92.5 105,85.3 104.1,85.3 104.1,94.6 105.2,94.6 105.2,87.5 110.9,94.6 111.9,94.6 111.9,85.4 
		110.7,85.4 	"/>
	<path class="st0" d="M118.9,90.9h2v1.3c-0.8,1-1.7,1.5-2.7,1.5c-0.5,0-0.9-0.1-1.3-0.3s-0.7-0.5-1-0.8s-0.5-0.7-0.7-1.2
		c-0.2-0.4-0.2-0.9-0.2-1.4c0-0.5,0.1-0.9,0.2-1.4s0.4-0.8,0.6-1.2c0.3-0.3,0.6-0.6,1-0.8c0.4-0.2,0.8-0.3,1.3-0.3
		c0.6,0,1.1,0.1,1.5,0.4c0.5,0.3,0.8,0.7,1.1,1.2l0.9-0.6c-0.3-0.6-0.7-1.1-1.3-1.5c-0.6-0.4-1.3-0.6-2.2-0.6
		c-0.6,0-1.2,0.1-1.7,0.4c-0.5,0.3-1,0.6-1.4,1c-0.4,0.4-0.7,0.9-0.9,1.5c-0.2,0.6-0.3,1.2-0.3,1.8c0,0.6,0.1,1.2,0.3,1.7
		c0.2,0.6,0.5,1.1,0.9,1.5c0.4,0.4,0.8,0.8,1.4,1.1s1.1,0.4,1.7,0.4c1.1,0,2-0.4,2.8-1.3v1.2h1V90h-3V90.9z"/>
	<path class="st0" d="M128.7,92.7c0.1-0.2,0.2-0.5,0.4-0.7c0.2-0.2,0.4-0.4,0.7-0.6s0.7-0.4,1.1-0.6c0.3-0.1,0.6-0.3,0.9-0.5
		c0.3-0.2,0.6-0.4,0.8-0.6s0.4-0.5,0.6-0.8c0.2-0.3,0.2-0.7,0.2-1.1c0-0.4-0.1-0.7-0.2-1c-0.1-0.3-0.3-0.6-0.6-0.9
		c-0.2-0.2-0.6-0.4-0.9-0.6c-0.4-0.1-0.8-0.2-1.3-0.2s-0.9,0.1-1.3,0.2c-0.4,0.1-0.7,0.3-1,0.5c-0.3,0.2-0.5,0.4-0.7,0.5
		c-0.2,0.2-0.3,0.3-0.4,0.4l0.7,0.7c0.1-0.1,0.2-0.3,0.4-0.4c0.2-0.1,0.3-0.3,0.6-0.4s0.4-0.2,0.7-0.3c0.3-0.1,0.5-0.1,0.8-0.1
		c0.3,0,0.6,0,0.8,0.1c0.2,0.1,0.4,0.2,0.6,0.4c0.1,0.2,0.3,0.3,0.3,0.5c0.1,0.2,0.1,0.4,0.1,0.6c0,0.4-0.1,0.7-0.2,0.9
		c-0.2,0.2-0.4,0.4-0.6,0.6c-0.3,0.2-0.5,0.3-0.8,0.5c-0.3,0.1-0.6,0.3-0.9,0.4c-0.4,0.2-0.8,0.4-1.1,0.7c-0.3,0.2-0.6,0.5-0.8,0.9
		c-0.2,0.3-0.4,0.7-0.5,1.2c-0.1,0.4-0.2,1-0.2,1.6h6.4v-1h-4.9C128.6,93.2,128.6,93,128.7,92.7z"/>
	<path class="st0" d="M141.9,86.9c-0.3-0.5-0.7-0.8-1.2-1.1c-0.5-0.3-1-0.4-1.7-0.4c-0.6,0-1.1,0.1-1.6,0.4s-0.9,0.6-1.2,1.1
		s-0.6,0.9-0.8,1.5c-0.2,0.6-0.3,1.1-0.3,1.7c0,0.5,0.1,1.1,0.2,1.6c0.2,0.5,0.4,1,0.7,1.5c0.3,0.5,0.7,0.8,1.2,1.1
		c0.5,0.3,1,0.4,1.7,0.5c0.6,0,1.1-0.2,1.6-0.4s0.9-0.6,1.2-1.1c0.3-0.4,0.6-0.9,0.8-1.5s0.3-1.1,0.3-1.7c0-0.5-0.1-1-0.2-1.6
		C142.5,87.9,142.2,87.4,141.9,86.9z M141.5,91.2c-0.1,0.4-0.3,0.8-0.5,1.2s-0.5,0.7-0.8,0.9c-0.3,0.2-0.7,0.4-1.2,0.4
		c-0.4,0-0.8-0.1-1.2-0.3c-0.3-0.2-0.6-0.5-0.8-0.9s-0.4-0.7-0.5-1.2c-0.1-0.4-0.2-0.9-0.2-1.3c0-0.4,0.1-0.8,0.2-1.2
		c0.1-0.4,0.3-0.8,0.5-1.2c0.2-0.4,0.5-0.7,0.8-0.9s0.7-0.4,1.2-0.4c0.4,0,0.8,0.1,1.1,0.3s0.6,0.5,0.8,0.9s0.4,0.7,0.5,1.2
		c0.1,0.4,0.2,0.9,0.2,1.3C141.7,90.4,141.6,90.8,141.5,91.2z"/>
	<path class="st0" d="M147.6,85.2h-1.2c0,0-0.1,0.1-0.2,0.2s-0.3,0.3-0.5,0.4c-0.2,0.2-0.4,0.3-0.7,0.4s-0.5,0.2-0.7,0.2v1.1
		c0.2,0,0.4,0,0.6-0.1c0.2-0.1,0.4-0.2,0.6-0.3c0.2-0.1,0.4-0.2,0.5-0.4c0.2-0.1,0.3-0.2,0.3-0.3v7.1h-1.8v1h4.6v-1h-1.7V85.2z"/>
	<path class="st0" d="M156.5,90.5c-0.2-0.2-0.3-0.4-0.6-0.5c-0.2-0.1-0.4-0.3-0.7-0.4c0.4-0.2,0.7-0.4,1-0.7
		c0.3-0.3,0.4-0.7,0.4-1.1c0-0.4-0.1-0.7-0.3-1c-0.2-0.3-0.4-0.6-0.7-0.8c-0.3-0.2-0.6-0.4-0.9-0.5c-0.4-0.1-0.7-0.2-1-0.2
		s-0.7,0.1-1,0.2c-0.3,0.1-0.7,0.3-0.9,0.5s-0.5,0.5-0.7,0.8c-0.2,0.3-0.3,0.6-0.3,1c0,0.2,0,0.4,0.1,0.6c0.1,0.2,0.2,0.4,0.3,0.5
		s0.3,0.3,0.5,0.4c0.2,0.1,0.4,0.2,0.5,0.3c-0.2,0.1-0.4,0.2-0.6,0.3c-0.2,0.1-0.4,0.3-0.6,0.5s-0.3,0.4-0.4,0.7
		c-0.1,0.2-0.2,0.5-0.2,0.8c0,0.4,0.1,0.8,0.2,1.1c0.2,0.3,0.4,0.6,0.7,0.9c0.3,0.2,0.6,0.4,1,0.6c0.4,0.1,0.8,0.2,1.3,0.2
		c0.4,0,0.9-0.1,1.3-0.2c0.4-0.1,0.7-0.3,1-0.5c0.3-0.2,0.5-0.5,0.7-0.9c0.2-0.3,0.3-0.7,0.3-1.1c0-0.3,0-0.5-0.1-0.8
		C156.8,90.9,156.6,90.7,156.5,90.5z M152.1,88.4c-0.1-0.2-0.2-0.4-0.2-0.6c0-0.2,0-0.4,0.1-0.6s0.2-0.3,0.4-0.5
		c0.2-0.1,0.3-0.2,0.6-0.3c0.2-0.1,0.4-0.1,0.7-0.1s0.5,0,0.7,0.1c0.2,0.1,0.4,0.2,0.6,0.3c0.2,0.1,0.3,0.3,0.4,0.4
		c0.1,0.2,0.1,0.4,0.1,0.6c0,0.2-0.1,0.4-0.2,0.6c-0.1,0.2-0.2,0.3-0.4,0.5c-0.2,0.1-0.4,0.2-0.6,0.3c-0.2,0.1-0.4,0.1-0.6,0.1
		s-0.4,0-0.6-0.1c-0.2-0.1-0.4-0.2-0.6-0.3C152.4,88.8,152.2,88.6,152.1,88.4z M155.7,92.6c-0.1,0.2-0.3,0.4-0.5,0.6
		c-0.2,0.2-0.4,0.3-0.7,0.4c-0.2,0.1-0.5,0.1-0.8,0.1c-0.3,0-0.5,0-0.7-0.1c-0.2-0.1-0.5-0.2-0.7-0.3c-0.2-0.1-0.4-0.3-0.5-0.5
		c-0.1-0.2-0.2-0.5-0.2-0.7c0-0.3,0.1-0.5,0.2-0.7c0.1-0.2,0.3-0.4,0.5-0.6c0.2-0.2,0.4-0.3,0.7-0.4c0.2-0.1,0.5-0.1,0.8-0.1
		c0.3,0,0.5,0,0.8,0.1c0.3,0.1,0.5,0.2,0.7,0.3c0.2,0.2,0.4,0.3,0.5,0.6c0.1,0.2,0.2,0.5,0.2,0.7C155.8,92.1,155.8,92.4,155.7,92.6z
		"/>
	<path class="st0" d="M139.9,20.8v-9.1h-7v11.6c1.4-0.4,2.6-0.9,3.9-1.4C137.9,21.6,138.9,21.2,139.9,20.8z"/>
	<path class="st0" d="M87,31.6l4.4-9.7l4.1,9.2c2.3-0.2,4.6-0.5,6.9-0.8l-8.7-18.5H89l-9.5,20.1c1.1,0,2.3,0,3.5-0.1
		C84.3,31.7,85.7,31.6,87,31.6z"/>
	<path class="st0" d="M57.5,31.1l4.2-9.2l4.4,9.8c2.3,0.1,4.8,0.2,7.4,0.2l-9.5-20.1h-4.6l-8.8,18.6c0.5,0.1,1.1,0.1,1.8,0.2
		C53.7,30.7,55.5,30.9,57.5,31.1z"/>
	<path class="st0" d="M111.9,28.8c0.7-0.1,1.3-0.3,2-0.4c1.7-0.3,3.4-0.7,5-1c1.6-0.4,3.2-0.8,4.8-1.2c0.3-0.1,0.7-0.2,1-0.3
		c-0.3-0.1-0.6-0.2-1-0.3l-6.8-2c-1.9-0.6-2.7-1.6-2.7-3c0-2.3,2-3.5,4.3-3.5c2.6,0,5,1.4,5.6,4.7l6.9-1.4
		c-1.2-5.8-5.9-9.2-12.4-9.2c-6.9,0-11.7,3.7-11.7,9.9C106.8,25.1,109,27.4,111.9,28.8z"/>
	<path class="st0" d="M69,38.3l2.4,5.4h2.5H79h2.5l2.4-5.4h14.8l2.4,5.4h7.6L103.7,33c-3.5,0.3-6.9,0.6-10.4,0.7
		c-1.7,0.1-3.5,0.2-5.2,0.2c-1.7,0-3.4,0-5.1,0c-1.5,0-3,0-4.5-0.1l-2.1,4.5l-2.2-4.6c-0.3,0-0.6,0-0.8,0c-3-0.2-5.9-0.3-8.6-0.6
		c-2.7-0.2-5.1-0.5-7.2-0.7c-2.1-0.2-4-0.5-5.5-0.7c-0.8-0.1-1.5-0.2-2.1-0.3l-5.8,12.4h7.6l2.4-5.4H69z"/>
	<path class="st0" d="M155.8,43.8v-6.1h-15.9V25.2c-0.6,0.2-1.1,0.4-1.7,0.6c-1.4,0.5-2.8,1-4.3,1.4c-0.3,0.1-0.6,0.2-1,0.3l0,16.3
		H155.8z"/>
	<path class="st0" d="M119.1,44.4c6.7,0,12.3-3.3,12.3-10c0-2.6-0.8-4.5-2.2-5.9c-1.5,0.4-3,0.8-4.6,1.1c-1.6,0.4-3.3,0.7-5,1.1
		c-0.3,0.1-0.7,0.1-1,0.2l2.5,0.7c2.2,0.6,3.1,1.6,3.1,3.2c0,2.2-1.7,3.5-4.7,3.5c-3.2,0-5.9-1.7-6.3-5.6l-7.2,0.8
		C106.4,41,112.4,44.4,119.1,44.4z"/>
</g>
</svg>
